# xmcd CD database file
#
# Track frame offsets:
#	150
#	21205
#	57971
#	99714
#	103631
#	130313
#	162510
#	191829
#	233277
#
# Disc length: 3443 seconds
#
# Revision: 0
# Processed by: cddbd v1.4PL0 Copyright (c) Steve Scherf et al.
# Submitted via: CDex 1.50beta10
#
DISCID=730d7109
DTITLE=Bobby Sanabria and Quarteto Aché - Bobby Sanabria and Quarteto Aché
DYEAR=2002
DGENRE=Jazz
TTITLE0=Shaw 'Nuff
TTITLE1=Soleshia
TTITLE2=Funky Mr. D
TTITLE3=Blue
TTITLE4=Child's Walk
TTITLE5=Ebb and Flow
TTITLE6=El Trane
TTITLE7=Aum
TTITLE8=Be-Bop
EXTD=YEAR: 2002
EXTT0=
EXTT1=
EXTT2=
EXTT3=
EXTT4=
EXTT5=
EXTT6=
EXTT7=
EXTT8=
PLAYORDER=
